<svg width="688" height="547" viewBox="0 0 688 547" fill="none" xmlns="http://www.w3.org/2000/svg">
<rect width="688" height="547" rx="1" fill="#CECECE" fill-opacity="0.8"/>
<path d="M213.995 438.139C213.896 438.139 213.802 438.179 213.733 438.249V438.249C213.591 438.392 213.36 438.395 213.215 438.255L213.206 438.246C213.135 438.178 213.04 438.139 212.941 438.139H180.437C175.649 438.134 171.058 436.209 167.674 432.785C164.29 429.361 162.389 424.72 162.389 419.88V125.422C162.422 120.593 164.334 115.971 167.711 112.555C171.088 109.138 175.659 107.202 180.437 107.163H508.218C518.188 107.163 526.266 115.346 526.266 125.422V419.88C526.233 424.709 524.321 429.331 520.944 432.748C517.567 436.164 512.996 438.101 508.218 438.139H213.995ZM488.167 326.085C488.796 326.72 489.878 326.275 489.878 325.382V144.938C489.878 144.386 489.431 143.938 488.878 143.938H199.776C199.224 143.938 198.776 144.386 198.776 144.938V398.932C198.776 399.825 199.859 400.27 200.487 399.635L380.004 218.207C380.396 217.811 381.035 217.811 381.426 218.207L488.167 326.085ZM489.878 380.225C489.878 379.962 489.774 379.709 489.589 379.522L381.426 270.207C381.035 269.811 380.396 269.811 380.004 270.207L251.914 399.661C251.289 400.292 251.737 401.364 252.625 401.364H488.878C489.431 401.364 489.878 400.916 489.878 400.364V380.225ZM271.552 254.264C261.901 254.264 252.646 250.389 245.822 243.492C238.998 236.596 235.164 227.242 235.164 217.489C235.164 207.735 238.998 198.381 245.822 191.485C252.646 184.588 261.901 180.713 271.552 180.713C281.202 180.713 290.458 184.588 297.282 191.485C304.106 198.381 307.94 207.735 307.94 217.489C307.94 227.242 304.106 236.596 297.282 243.492C290.458 250.389 281.202 254.264 271.552 254.264Z" fill="white"/>
</svg>
