<svg width="45" height="46" viewBox="0 0 45 46" fill="none" xmlns="http://www.w3.org/2000/svg">
<path d="M43.7889 0.325C43.585 0.118 43.2985 0 42.997 0H1.07299C0.771481 0 0.484991 0.118 0.281122 0.325C0.0772531 0.532 -0.0225353 0.81 0.0042896 1.089L3.78123 40.516C3.82093 40.928 4.12888 41.275 4.55593 41.389L21.7346 45.962C21.8301 45.987 21.9299 46 22.0286 46C22.1273 46 22.2271 45.987 22.3226 45.962L39.5162 41.389C39.9433 41.275 40.2512 40.928 40.2909 40.516L44.0657 1.089C44.0926 0.81 43.9917 0.532 43.7889 0.325ZM8.08609 27.004L15.597 28.946V9H19.889V35L8.08609 31.949V27.004ZM36.0419 20L34.9109 32.25L24.181 35V30.399L31.4237 28.544L31.692 24.794L24.181 26V9H37.0569L36.6868 13H28.473V21L36.0419 20Z" fill="url(#paint0_linear_208_490)"/>
<defs>
<linearGradient id="paint0_linear_208_490" x1="3.64312" y1="3.37243" x2="37.3222" y2="36.8621" gradientUnits="userSpaceOnUse">
<stop stop-color="#F71515"/>
<stop offset="1" stop-color="#EE0000" stop-opacity="0.77"/>
</linearGradient>
</defs>
</svg>
