<svg width="56" height="56" viewBox="0 0 56 56" fill="none" xmlns="http://www.w3.org/2000/svg">
<rect width="56" height="56" rx="28" fill="#CECECE" fill-opacity="0.8"/>
<path d="M17.4192 44.8549C17.4107 44.8549 17.4027 44.8588 17.3974 44.8655V44.8655C17.3865 44.8794 17.3655 44.8797 17.3542 44.866L17.3536 44.8653C17.3482 44.8587 17.3401 44.8549 17.3316 44.8549H14.6868C14.2971 44.8544 13.9234 44.6573 13.648 44.3068C13.3725 43.9563 13.2178 43.4811 13.2178 42.9857V12.84C13.2205 12.3456 13.3761 11.8724 13.651 11.5227C13.9258 11.1729 14.2979 10.9746 14.6868 10.9707H41.3666C42.1782 10.9707 42.8357 11.8084 42.8357 12.84V42.9857C42.833 43.48 42.6774 43.9532 42.4025 44.303C42.1276 44.6527 41.7556 44.851 41.3666 44.8549H17.4192ZM33.7038 25.717C35.7318 28.2949 39.8739 26.8608 39.8739 23.5809V19.5767C39.8739 16.903 37.7065 14.7356 35.0328 14.7356H22.9571C19.214 14.7356 16.1796 17.77 16.1796 21.5131V24.4579C16.1796 29.9244 23.0831 32.3145 26.463 28.0181L28.2732 25.717C29.6565 23.9587 32.3206 23.9587 33.7038 25.717V25.717ZM39.8739 39.4511C39.8739 39.0836 39.7504 38.7267 39.5231 38.4378L35.0426 32.7425C32.9774 30.1172 28.9997 30.1172 26.9344 32.7425V32.7425C24.2723 36.1265 26.6829 41.09 30.9885 41.09H38.235C39.1402 41.09 39.8739 40.3563 39.8739 39.4511V39.4511ZM22.1032 26.0304C21.3176 26.0304 20.5643 25.6337 20.0088 24.9276C19.4534 24.2216 19.1414 23.264 19.1414 22.2654C19.1414 21.2669 19.4534 20.3093 20.0088 19.6032C20.5643 18.8972 21.3176 18.5005 22.1032 18.5005C22.8887 18.5005 23.642 18.8972 24.1975 19.6032C24.7529 20.3093 25.0649 21.2669 25.0649 22.2654C25.0649 23.264 24.7529 24.2216 24.1975 24.9276C23.642 25.6337 22.8887 26.0304 22.1032 26.0304Z" fill="white"/>
</svg>
