<svg width="50" height="46" viewBox="0 0 50 46" fill="none" xmlns="http://www.w3.org/2000/svg">
<path d="M25 26.6818C24.0528 26.6818 23.1444 26.2939 22.4746 25.6035C21.8048 24.913 21.4286 23.9765 21.4286 23C21.4286 22.0235 21.8048 21.087 22.4746 20.3965C23.1444 19.7061 24.0528 19.3181 25 19.3181C25.9472 19.3181 26.8556 19.7061 27.5254 20.3965C28.1952 21.087 28.5714 22.0235 28.5714 23C28.5714 23.9765 28.1952 24.913 27.5254 25.6035C26.8556 26.2939 25.9472 26.6818 25 26.6818ZM23.7429 34.0308C24.1595 34.5463 24.5786 35.047 25 35.5257C25.4214 35.047 25.8405 34.5487 26.2571 34.0308C25.4191 34.0492 24.5809 34.0492 23.7429 34.0308V34.0308ZM18.9929 33.724C17.1644 33.5278 15.3481 33.2263 13.5524 32.8207C13.3738 33.6798 13.2381 34.5144 13.1476 35.3146C12.6952 39.2001 13.3262 41.5614 14.2857 42.1309C15.2452 42.7028 17.5429 42.0842 20.5833 39.7401C21.2095 39.2566 21.8405 38.719 22.4738 38.1324C21.2345 36.7311 20.0724 35.2593 18.9929 33.724V33.724ZM36.4476 32.8207C34.7405 33.2134 32.9167 33.5178 31.0071 33.724C29.9276 35.2593 28.7655 36.7311 27.5262 38.1324C28.1595 38.7215 28.7905 39.2566 29.4167 39.7401C32.4571 42.0842 34.7548 42.7028 35.7143 42.1309C36.6738 41.5614 37.3024 39.2001 36.8548 35.3146C36.7565 34.4774 36.6214 33.6453 36.45 32.8207H36.4476ZM39.9 31.8708C41.2738 38.3484 40.5524 43.5054 37.5 45.3218C34.4476 47.1382 29.7548 45.204 25 40.7391C20.2452 45.204 15.5524 47.1357 12.5 45.3194C9.44762 43.503 8.72619 38.3484 10.0976 31.8683C3.96905 29.8581 0 26.6328 0 23C0 19.3672 3.96905 16.1444 10.0976 14.1292C8.72619 7.6516 9.44762 2.49456 12.5 0.678178C15.5524 -1.1382 20.2452 0.795996 25 5.26085C29.7548 0.795996 34.4476 -1.13575 37.5 0.680633C40.5524 2.49701 41.2738 7.6516 39.9024 14.1317C46.031 16.1419 50 19.3672 50 23C50 26.6328 46.031 29.8556 39.9024 31.8708H39.9ZM22.4714 7.8676C21.8659 7.30258 21.2359 6.76611 20.5833 6.25986C17.5429 3.91575 15.2452 3.2972 14.2857 3.86911C13.3262 4.43857 12.6976 6.79986 13.1452 10.6854C13.2405 11.4881 13.3738 12.3202 13.55 13.1793C15.3465 12.7736 17.1636 12.4721 18.9929 12.276C20.1238 10.6732 21.2905 9.19798 22.4738 7.8676H22.4714ZM31.0071 12.276C32.9167 12.4822 34.7405 12.789 36.4476 13.1793C36.6262 12.3202 36.7619 11.4856 36.8524 10.6854C37.3048 6.79986 36.6738 4.43857 35.7143 3.86911C34.7548 3.2972 32.4571 3.91575 29.4167 6.25986C28.7633 6.76605 28.1325 7.30252 27.5262 7.8676C28.7095 9.19798 29.8762 10.6732 31.0071 12.276V12.276ZM26.2571 11.9692C25.8405 11.4537 25.4214 10.953 25 10.4743C24.5786 10.953 24.1595 11.4513 23.7429 11.9692C24.5809 11.9508 25.4191 11.9508 26.2571 11.9692V11.9692ZM16.3619 29.6371C15.9275 28.8986 15.5084 28.1506 15.1048 27.3937C14.8786 28.0245 14.669 28.6455 14.4786 29.2616C15.0905 29.3991 15.719 29.5242 16.3595 29.6371H16.3619ZM20.9619 30.2115C23.6503 30.4174 26.3497 30.4174 29.0381 30.2115C30.5552 27.9139 31.905 25.5035 33.0762 23C31.905 20.4965 30.5552 18.0861 29.0381 15.7885C26.3497 15.5826 23.6503 15.5826 20.9619 15.7885C19.4448 18.0861 18.095 20.4965 16.9238 23C18.095 25.5035 19.4448 27.9139 20.9619 30.2115V30.2115ZM34.8952 18.6063C35.1214 17.9755 35.331 17.3545 35.5214 16.7384C34.8972 16.5988 34.2701 16.4735 33.6405 16.3629C34.0741 17.1014 34.4924 17.8494 34.8952 18.6063ZM11.0238 17.6908C10.2143 17.9608 9.44762 18.2553 8.72857 18.5744C5.24048 20.1159 3.57143 21.8586 3.57143 23C3.57143 24.1414 5.2381 25.8841 8.72857 27.4256C9.44762 27.7447 10.2143 28.0392 11.0238 28.3092C11.5524 26.591 12.2071 24.809 12.9881 23C12.2377 21.2695 11.5819 19.4969 11.0238 17.6908V17.6908ZM14.4762 16.7384C14.669 17.352 14.8786 17.9755 15.1048 18.6039C15.5084 17.8478 15.9275 17.1006 16.3619 16.3629C15.719 16.4758 15.0905 16.6009 14.4786 16.7384H14.4762ZM38.9762 28.3092C39.7857 28.0392 40.5524 27.7447 41.2714 27.4256C44.7595 25.8841 46.4286 24.1414 46.4286 23C46.4286 21.8586 44.7619 20.1159 41.2714 18.5744C40.5197 18.2443 39.7538 17.9494 38.9762 17.6908C38.4476 19.409 37.7929 21.191 37.0119 23C37.7929 24.809 38.4476 26.5886 38.9762 28.3092V28.3092ZM35.5238 29.2616C35.331 28.648 35.1214 28.0245 34.8952 27.3961C34.4916 28.1522 34.0725 28.8994 33.6381 29.6371C34.281 29.5242 34.9095 29.3991 35.5214 29.2616H35.5238Z" fill="#0D99FF" fill-opacity="0.8"/>
</svg>
