<svg width="116" height="20" viewBox="0 0 116 20" fill="none" xmlns="http://www.w3.org/2000/svg">
<g clip-path="url(#clip0_221_151)">
<path d="M9.07088 1.46439C9.41462 0.647935 10.5854 0.647936 10.9291 1.4644L12.9579 6.28328C13.1029 6.62748 13.4306 6.86266 13.8067 6.89245L19.0727 7.30953C19.9649 7.3802 20.3267 8.48018 19.6469 9.05545L15.6348 12.4507C15.3482 12.6933 15.223 13.0738 15.3106 13.4364L16.5363 18.5131C16.744 19.3732 15.7969 20.0531 15.033 19.5922L10.5245 16.8716C10.2025 16.6773 9.7975 16.6773 9.47548 16.8716L4.96699 19.5922C4.20311 20.0531 3.25596 19.3732 3.46363 18.5131L4.68942 13.4364C4.77698 13.0738 4.65182 12.6933 4.36526 12.4507L0.353062 9.05545C-0.326718 8.48018 0.0350679 7.3802 0.927291 7.30953L6.19336 6.89245C6.5695 6.86266 6.89716 6.62748 7.04207 6.28328L9.07088 1.46439Z" fill="#006B6A"/>
<path d="M33.0709 1.46439C33.4146 0.647935 34.5854 0.647936 34.9291 1.4644L36.9579 6.28328C37.1029 6.62748 37.4306 6.86266 37.8067 6.89245L43.0727 7.30953C43.9649 7.3802 44.3267 8.48018 43.6469 9.05545L39.6348 12.4507C39.3482 12.6933 39.223 13.0738 39.3106 13.4364L40.5363 18.5131C40.744 19.3732 39.7969 20.0531 39.033 19.5922L34.5245 16.8716C34.2025 16.6773 33.7975 16.6773 33.4755 16.8716L28.967 19.5922C28.2031 20.0531 27.256 19.3732 27.4636 18.5131L28.6894 13.4364C28.777 13.0738 28.6518 12.6933 28.3653 12.4507L24.3531 9.05545C23.6733 8.48018 24.0351 7.3802 24.9273 7.30953L30.1934 6.89245C30.5695 6.86266 30.8972 6.62748 31.0421 6.28328L33.0709 1.46439Z" fill="#006B6A"/>
<path d="M57.0709 1.46439C57.4146 0.647935 58.5854 0.647936 58.9291 1.4644L60.9579 6.28328C61.1029 6.62748 61.4306 6.86266 61.8067 6.89245L67.0727 7.30953C67.9649 7.3802 68.3267 8.48018 67.6469 9.05545L63.6348 12.4507C63.3482 12.6933 63.223 13.0738 63.3106 13.4364L64.5363 18.5131C64.744 19.3732 63.7969 20.0531 63.033 19.5922L58.5245 16.8716C58.2025 16.6773 57.7975 16.6773 57.4755 16.8716L52.967 19.5922C52.2031 20.0531 51.256 19.3732 51.4636 18.5131L52.6894 13.4364C52.777 13.0738 52.6518 12.6933 52.3653 12.4507L48.3531 9.05545C47.6733 8.48018 48.0351 7.3802 48.9273 7.30953L54.1934 6.89245C54.5695 6.86266 54.8972 6.62748 55.0421 6.28328L57.0709 1.46439Z" fill="#006B6A"/>
<path d="M81.0709 1.46439C81.4146 0.647935 82.5854 0.647936 82.9291 1.4644L84.9579 6.28328C85.1029 6.62748 85.4306 6.86266 85.8067 6.89245L91.0727 7.30953C91.9649 7.3802 92.3267 8.48018 91.6469 9.05545L87.6348 12.4507C87.3482 12.6933 87.223 13.0738 87.3106 13.4364L88.5363 18.5131C88.744 19.3732 87.7969 20.0531 87.033 19.5922L82.5245 16.8716C82.2025 16.6773 81.7975 16.6773 81.4755 16.8716L76.967 19.5922C76.2031 20.0531 75.256 19.3732 75.4636 18.5131L76.6894 13.4364C76.777 13.0738 76.6518 12.6933 76.3653 12.4507L72.3531 9.05545C71.6733 8.48018 72.0351 7.3802 72.9273 7.30953L78.1934 6.89245C78.5695 6.86266 78.8972 6.62748 79.0421 6.28328L81.0709 1.46439Z" fill="#006B6A"/>
<path d="M105.071 1.46439C105.415 0.647935 106.585 0.647936 106.929 1.4644L108.958 6.28328C109.103 6.62748 109.431 6.86266 109.807 6.89245L115.073 7.30953C115.965 7.3802 116.327 8.48018 115.647 9.05545L111.635 12.4507C111.348 12.6933 111.223 13.0738 111.311 13.4364L112.536 18.5131C112.744 19.3732 111.797 20.0531 111.033 19.5922L106.525 16.8716C106.202 16.6773 105.797 16.6773 105.475 16.8716L100.967 19.5922C100.203 20.0531 99.256 19.3732 99.4636 18.5131L100.689 13.4364C100.777 13.0738 100.652 12.6933 100.365 12.4507L96.3531 9.05545C95.6733 8.48018 96.0351 7.3802 96.9273 7.30953L102.193 6.89245C102.569 6.86266 102.897 6.62748 103.042 6.28328L105.071 1.46439Z" fill="#006B6A"/>
</g>
<defs>
<clipPath id="clip0_221_151">
<rect width="116" height="18.8889" fill="white" transform="translate(0 0.852051)"/>
</clipPath>
</defs>
</svg>
