<svg width="138" height="19" viewBox="0 0 138 19" fill="none" xmlns="http://www.w3.org/2000/svg">
<path d="M7.48828 15.4102L12.5156 0.9375H14.9648L8.64844 18H6.90234L7.48828 15.4102ZM2.78906 0.9375L7.76953 15.4102L8.39062 18H6.64453L0.339844 0.9375H2.78906ZM22.6875 2.44922L17.0391 18H14.7305L21.2344 0.9375H22.7227L22.6875 2.44922ZM27.4219 18L21.7617 2.44922L21.7266 0.9375H23.2148L29.7422 18H27.4219ZM27.1289 11.6836V13.5352H17.543V11.6836H27.1289ZM45.1523 0.9375V18H42.8789L34.2891 4.83984V18H32.0273V0.9375H34.2891L42.9141 14.1328V0.9375H45.1523Z" fill="#0D99FF"/>
<path d="M53.7773 18H50.2148L50.2383 16.1602H53.7773C54.9961 16.1602 56.0117 15.9062 56.8242 15.3984C57.6367 14.8828 58.2461 14.1641 58.6523 13.2422C59.0664 12.3125 59.2734 11.2266 59.2734 9.98438V8.94141C59.2734 7.96484 59.1562 7.09766 58.9219 6.33984C58.6875 5.57422 58.3438 4.92969 57.8906 4.40625C57.4375 3.875 56.8828 3.47266 56.2266 3.19922C55.5781 2.92578 54.832 2.78906 53.9883 2.78906H50.1445V0.9375H53.9883C55.1055 0.9375 56.125 1.125 57.0469 1.5C57.9688 1.86719 58.7617 2.40234 59.4258 3.10547C60.0977 3.80078 60.6133 4.64453 60.9727 5.63672C61.332 6.62109 61.5117 7.73047 61.5117 8.96484V9.98438C61.5117 11.2188 61.332 12.332 60.9727 13.3242C60.6133 14.3086 60.0938 15.1484 59.4141 15.8438C58.7422 16.5391 57.9297 17.0742 56.9766 17.4492C56.0312 17.8164 54.9648 18 53.7773 18ZM51.4219 0.9375V18H49.1602V0.9375H51.4219ZM75.75 16.1602V18H66.7148V16.1602H75.75ZM67.1719 0.9375V18H64.9102V0.9375H67.1719ZM74.5547 8.27344V10.1133H66.7148V8.27344H74.5547ZM75.6328 0.9375V2.78906H66.7148V0.9375H75.6328ZM78.5508 0.9375H84.1992C85.4805 0.9375 86.5625 1.13281 87.4453 1.52344C88.3359 1.91406 89.0117 2.49219 89.4727 3.25781C89.9414 4.01562 90.1758 4.94922 90.1758 6.05859C90.1758 6.83984 90.0156 7.55469 89.6953 8.20312C89.3828 8.84375 88.9297 9.39062 88.3359 9.84375C87.75 10.2891 87.0469 10.6211 86.2266 10.8398L85.5938 11.0859H80.2852L80.2617 9.24609H84.2695C85.082 9.24609 85.7578 9.10547 86.2969 8.82422C86.8359 8.53516 87.2422 8.14844 87.5156 7.66406C87.7891 7.17969 87.9258 6.64453 87.9258 6.05859C87.9258 5.40234 87.7969 4.82812 87.5391 4.33594C87.2812 3.84375 86.875 3.46484 86.3203 3.19922C85.7734 2.92578 85.0664 2.78906 84.1992 2.78906H80.8125V18H78.5508V0.9375ZM88.5234 18L84.375 10.2656L86.7305 10.2539L90.9375 17.8594V18H88.5234ZM102.434 13.6875C102.434 13.2891 102.371 12.9375 102.246 12.6328C102.129 12.3203 101.918 12.0391 101.613 11.7891C101.316 11.5391 100.902 11.3008 100.371 11.0742C99.8477 10.8477 99.1836 10.6172 98.3789 10.3828C97.5352 10.1328 96.7734 9.85547 96.0938 9.55078C95.4141 9.23828 94.832 8.88281 94.3477 8.48438C93.8633 8.08594 93.4922 7.62891 93.2344 7.11328C92.9766 6.59766 92.8477 6.00781 92.8477 5.34375C92.8477 4.67969 92.9844 4.06641 93.2578 3.50391C93.5312 2.94141 93.9219 2.45312 94.4297 2.03906C94.9453 1.61719 95.5586 1.28906 96.2695 1.05469C96.9805 0.820312 97.7734 0.703125 98.6484 0.703125C99.9297 0.703125 101.016 0.949219 101.906 1.44141C102.805 1.92578 103.488 2.5625 103.957 3.35156C104.426 4.13281 104.66 4.96875 104.66 5.85938H102.41C102.41 5.21875 102.273 4.65234 102 4.16016C101.727 3.66016 101.312 3.26953 100.758 2.98828C100.203 2.69922 99.5 2.55469 98.6484 2.55469C97.8438 2.55469 97.1797 2.67578 96.6562 2.91797C96.1328 3.16016 95.7422 3.48828 95.4844 3.90234C95.2344 4.31641 95.1094 4.78906 95.1094 5.32031C95.1094 5.67969 95.1836 6.00781 95.332 6.30469C95.4883 6.59375 95.7266 6.86328 96.0469 7.11328C96.375 7.36328 96.7891 7.59375 97.2891 7.80469C97.7969 8.01562 98.4023 8.21875 99.1055 8.41406C100.074 8.6875 100.91 8.99219 101.613 9.32812C102.316 9.66406 102.895 10.043 103.348 10.4648C103.809 10.8789 104.148 11.3516 104.367 11.8828C104.594 12.4062 104.707 13 104.707 13.6641C104.707 14.3594 104.566 14.9883 104.285 15.5508C104.004 16.1133 103.602 16.5938 103.078 16.9922C102.555 17.3906 101.926 17.6992 101.191 17.918C100.465 18.1289 99.6523 18.2344 98.7539 18.2344C97.9648 18.2344 97.1875 18.125 96.4219 17.9062C95.6641 17.6875 94.9727 17.3594 94.3477 16.9219C93.7305 16.4844 93.2344 15.9453 92.8594 15.3047C92.4922 14.6562 92.3086 13.9062 92.3086 13.0547H94.5586C94.5586 13.6406 94.6719 14.1445 94.8984 14.5664C95.125 14.9805 95.4336 15.3242 95.8242 15.5977C96.2227 15.8711 96.6719 16.0742 97.1719 16.207C97.6797 16.332 98.207 16.3945 98.7539 16.3945C99.543 16.3945 100.211 16.2852 100.758 16.0664C101.305 15.8477 101.719 15.5352 102 15.1289C102.289 14.7227 102.434 14.2422 102.434 13.6875ZM120.727 8.92969V10.0078C120.727 11.2891 120.566 12.4375 120.246 13.4531C119.926 14.4688 119.465 15.332 118.863 16.043C118.262 16.7539 117.539 17.2969 116.695 17.6719C115.859 18.0469 114.922 18.2344 113.883 18.2344C112.875 18.2344 111.949 18.0469 111.105 17.6719C110.27 17.2969 109.543 16.7539 108.926 16.043C108.316 15.332 107.844 14.4688 107.508 13.4531C107.172 12.4375 107.004 11.2891 107.004 10.0078V8.92969C107.004 7.64844 107.168 6.50391 107.496 5.49609C107.832 4.48047 108.305 3.61719 108.914 2.90625C109.523 2.1875 110.246 1.64062 111.082 1.26562C111.926 0.890625 112.852 0.703125 113.859 0.703125C114.898 0.703125 115.836 0.890625 116.672 1.26562C117.516 1.64062 118.238 2.1875 118.84 2.90625C119.449 3.61719 119.914 4.48047 120.234 5.49609C120.562 6.50391 120.727 7.64844 120.727 8.92969ZM118.488 10.0078V8.90625C118.488 7.89062 118.383 6.99219 118.172 6.21094C117.969 5.42969 117.668 4.77344 117.27 4.24219C116.871 3.71094 116.383 3.30859 115.805 3.03516C115.234 2.76172 114.586 2.625 113.859 2.625C113.156 2.625 112.52 2.76172 111.949 3.03516C111.387 3.30859 110.902 3.71094 110.496 4.24219C110.098 4.77344 109.789 5.42969 109.57 6.21094C109.352 6.99219 109.242 7.89062 109.242 8.90625V10.0078C109.242 11.0312 109.352 11.9375 109.57 12.7266C109.789 13.5078 110.102 14.168 110.508 14.707C110.922 15.2383 111.41 15.6406 111.973 15.9141C112.543 16.1875 113.18 16.3242 113.883 16.3242C114.617 16.3242 115.27 16.1875 115.84 15.9141C116.41 15.6406 116.891 15.2383 117.281 14.707C117.68 14.168 117.98 13.5078 118.184 12.7266C118.387 11.9375 118.488 11.0312 118.488 10.0078ZM137.238 0.9375V18H134.965L126.375 4.83984V18H124.113V0.9375H126.375L135 14.1328V0.9375H137.238Z" fill="black"/>
</svg>
