<svg width="114" height="19" viewBox="0 0 114 19" fill="none" xmlns="http://www.w3.org/2000/svg">
<path d="M7.48828 15.4102L12.5156 0.9375H14.9648L8.64844 18H6.90234L7.48828 15.4102ZM2.78906 0.9375L7.76953 15.4102L8.39062 18H6.64453L0.339844 0.9375H2.78906Z" fill="#0D99FF"/>
<path d="M24.4102 15.832V9.30469C24.4102 8.80469 24.3086 8.37109 24.1055 8.00391C23.9102 7.62891 23.6133 7.33984 23.2148 7.13672C22.8164 6.93359 22.3242 6.83203 21.7383 6.83203C21.1914 6.83203 20.7109 6.92578 20.2969 7.11328C19.8906 7.30078 19.5703 7.54688 19.3359 7.85156C19.1094 8.15625 18.9961 8.48438 18.9961 8.83594H16.8281C16.8281 8.38281 16.9453 7.93359 17.1797 7.48828C17.4141 7.04297 17.75 6.64062 18.1875 6.28125C18.6328 5.91406 19.1641 5.625 19.7812 5.41406C20.4062 5.19531 21.1016 5.08594 21.8672 5.08594C22.7891 5.08594 23.6016 5.24219 24.3047 5.55469C25.0156 5.86719 25.5703 6.33984 25.9688 6.97266C26.375 7.59766 26.5781 8.38281 26.5781 9.32812V15.2344C26.5781 15.6562 26.6133 16.1055 26.6836 16.582C26.7617 17.0586 26.875 17.4688 27.0234 17.8125V18H24.7617C24.6523 17.75 24.5664 17.418 24.5039 17.0039C24.4414 16.582 24.4102 16.1914 24.4102 15.832ZM24.7852 10.3125L24.8086 11.8359H22.6172C22 11.8359 21.4492 11.8867 20.9648 11.9883C20.4805 12.082 20.0742 12.2266 19.7461 12.4219C19.418 12.6172 19.168 12.8633 18.9961 13.1602C18.8242 13.4492 18.7383 13.7891 18.7383 14.1797C18.7383 14.5781 18.8281 14.9414 19.0078 15.2695C19.1875 15.5977 19.457 15.8594 19.8164 16.0547C20.1836 16.2422 20.6328 16.3359 21.1641 16.3359C21.8281 16.3359 22.4141 16.1953 22.9219 15.9141C23.4297 15.6328 23.832 15.2891 24.1289 14.8828C24.4336 14.4766 24.5977 14.082 24.6211 13.6992L25.5469 14.7422C25.4922 15.0703 25.3438 15.4336 25.1016 15.832C24.8594 16.2305 24.5352 16.6133 24.1289 16.9805C23.7305 17.3398 23.2539 17.6406 22.6992 17.8828C22.1523 18.1172 21.5352 18.2344 20.8477 18.2344C19.9883 18.2344 19.2344 18.0664 18.5859 17.7305C17.9453 17.3945 17.4453 16.9453 17.0859 16.3828C16.7344 15.8125 16.5586 15.1758 16.5586 14.4727C16.5586 13.793 16.6914 13.1953 16.957 12.6797C17.2227 12.1562 17.6055 11.7227 18.1055 11.3789C18.6055 11.0273 19.207 10.7617 19.9102 10.582C20.6133 10.4023 21.3984 10.3125 22.2656 10.3125H24.7852ZM32.1562 8.02734V18H29.9883V5.32031H32.0391L32.1562 8.02734ZM31.6406 11.1797L30.7383 11.1445C30.7461 10.2773 30.875 9.47656 31.125 8.74219C31.375 8 31.7266 7.35547 32.1797 6.80859C32.6328 6.26172 33.1719 5.83984 33.7969 5.54297C34.4297 5.23828 35.1289 5.08594 35.8945 5.08594C36.5195 5.08594 37.082 5.17188 37.582 5.34375C38.082 5.50781 38.5078 5.77344 38.8594 6.14062C39.2188 6.50781 39.4922 6.98438 39.6797 7.57031C39.8672 8.14844 39.9609 8.85547 39.9609 9.69141V18H37.7812V9.66797C37.7812 9.00391 37.6836 8.47266 37.4883 8.07422C37.293 7.66797 37.0078 7.375 36.6328 7.19531C36.2578 7.00781 35.7969 6.91406 35.25 6.91406C34.7109 6.91406 34.2188 7.02734 33.7734 7.25391C33.3359 7.48047 32.957 7.79297 32.6367 8.19141C32.3242 8.58984 32.0781 9.04688 31.8984 9.5625C31.7266 10.0703 31.6406 10.6094 31.6406 11.1797ZM51.2461 15.5391V0H53.4258V18H51.4336L51.2461 15.5391ZM42.7148 11.8008V11.5547C42.7148 10.5859 42.832 9.70703 43.0664 8.91797C43.3086 8.12109 43.6484 7.4375 44.0859 6.86719C44.5312 6.29688 45.0586 5.85938 45.668 5.55469C46.2852 5.24219 46.9727 5.08594 47.7305 5.08594C48.5273 5.08594 49.2227 5.22656 49.8164 5.50781C50.418 5.78125 50.9258 6.18359 51.3398 6.71484C51.7617 7.23828 52.0938 7.87109 52.3359 8.61328C52.5781 9.35547 52.7461 10.1953 52.8398 11.1328V12.2109C52.7539 13.1406 52.5859 13.9766 52.3359 14.7188C52.0938 15.4609 51.7617 16.0938 51.3398 16.6172C50.9258 17.1406 50.418 17.543 49.8164 17.8242C49.2148 18.0977 48.5117 18.2344 47.707 18.2344C46.9648 18.2344 46.2852 18.0742 45.668 17.7539C45.0586 17.4336 44.5312 16.9844 44.0859 16.4062C43.6484 15.8281 43.3086 15.1484 43.0664 14.3672C42.832 13.5781 42.7148 12.7227 42.7148 11.8008ZM44.8945 11.5547V11.8008C44.8945 12.4336 44.957 13.0273 45.082 13.582C45.2148 14.1367 45.418 14.625 45.6914 15.0469C45.9648 15.4688 46.3125 15.8008 46.7344 16.043C47.1562 16.2773 47.6602 16.3945 48.2461 16.3945C48.9648 16.3945 49.5547 16.2422 50.0156 15.9375C50.4844 15.6328 50.8594 15.2305 51.1406 14.7305C51.4219 14.2305 51.6406 13.6875 51.7969 13.1016V10.2773C51.7031 9.84766 51.5664 9.43359 51.3867 9.03516C51.2148 8.62891 50.9883 8.26953 50.707 7.95703C50.4336 7.63672 50.0938 7.38281 49.6875 7.19531C49.2891 7.00781 48.8164 6.91406 48.2695 6.91406C47.6758 6.91406 47.1641 7.03906 46.7344 7.28906C46.3125 7.53125 45.9648 7.86719 45.6914 8.29688C45.418 8.71875 45.2148 9.21094 45.082 9.77344C44.957 10.3281 44.8945 10.9219 44.8945 11.5547ZM62.0625 18.2344C61.1797 18.2344 60.3789 18.0859 59.6602 17.7891C58.9492 17.4844 58.3359 17.0586 57.8203 16.5117C57.3125 15.9648 56.9219 15.3164 56.6484 14.5664C56.375 13.8164 56.2383 12.9961 56.2383 12.1055V11.6133C56.2383 10.582 56.3906 9.66406 56.6953 8.85938C57 8.04688 57.4141 7.35938 57.9375 6.79688C58.4609 6.23438 59.0547 5.80859 59.7188 5.51953C60.3828 5.23047 61.0703 5.08594 61.7812 5.08594C62.6875 5.08594 63.4688 5.24219 64.125 5.55469C64.7891 5.86719 65.332 6.30469 65.7539 6.86719C66.1758 7.42188 66.4883 8.07812 66.6914 8.83594C66.8945 9.58594 66.9961 10.4062 66.9961 11.2969V12.2695H57.5273V10.5H64.8281V10.3359C64.7969 9.77344 64.6797 9.22656 64.4766 8.69531C64.2812 8.16406 63.9688 7.72656 63.5391 7.38281C63.1094 7.03906 62.5234 6.86719 61.7812 6.86719C61.2891 6.86719 60.8359 6.97266 60.4219 7.18359C60.0078 7.38672 59.6523 7.69141 59.3555 8.09766C59.0586 8.50391 58.8281 9 58.6641 9.58594C58.5 10.1719 58.418 10.8477 58.418 11.6133V12.1055C58.418 12.707 58.5 13.2734 58.6641 13.8047C58.8359 14.3281 59.082 14.7891 59.4023 15.1875C59.7305 15.5859 60.125 15.8984 60.5859 16.125C61.0547 16.3516 61.5859 16.4648 62.1797 16.4648C62.9453 16.4648 63.5938 16.3086 64.125 15.9961C64.6562 15.6836 65.1211 15.2656 65.5195 14.7422L66.832 15.7852C66.5586 16.1992 66.2109 16.5938 65.7891 16.9688C65.3672 17.3438 64.8477 17.6484 64.2305 17.8828C63.6211 18.1172 62.8984 18.2344 62.0625 18.2344ZM71.6953 7.3125V18H69.5273V5.32031H71.6367L71.6953 7.3125ZM75.6562 5.25L75.6445 7.26562C75.4648 7.22656 75.293 7.20312 75.1289 7.19531C74.9727 7.17969 74.793 7.17188 74.5898 7.17188C74.0898 7.17188 73.6484 7.25 73.2656 7.40625C72.8828 7.5625 72.5586 7.78125 72.293 8.0625C72.0273 8.34375 71.8164 8.67969 71.6602 9.07031C71.5117 9.45312 71.4141 9.875 71.3672 10.3359L70.7578 10.6875C70.7578 9.92188 70.832 9.20312 70.9805 8.53125C71.1367 7.85938 71.375 7.26562 71.6953 6.75C72.0156 6.22656 72.4219 5.82031 72.9141 5.53125C73.4141 5.23438 74.0078 5.08594 74.6953 5.08594C74.8516 5.08594 75.0312 5.10547 75.2344 5.14453C75.4375 5.17578 75.5781 5.21094 75.6562 5.25ZM85.043 14.6367C85.043 14.3242 84.9727 14.0352 84.832 13.7695C84.6992 13.4961 84.4219 13.25 84 13.0312C83.5859 12.8047 82.9609 12.6094 82.125 12.4453C81.4219 12.2969 80.7852 12.1211 80.2148 11.918C79.6523 11.7148 79.1719 11.4688 78.7734 11.1797C78.3828 10.8906 78.082 10.5508 77.8711 10.1602C77.6602 9.76953 77.5547 9.3125 77.5547 8.78906C77.5547 8.28906 77.6641 7.81641 77.8828 7.37109C78.1094 6.92578 78.4258 6.53125 78.832 6.1875C79.2461 5.84375 79.7422 5.57422 80.3203 5.37891C80.8984 5.18359 81.543 5.08594 82.2539 5.08594C83.2695 5.08594 84.1367 5.26562 84.8555 5.625C85.5742 5.98438 86.125 6.46484 86.5078 7.06641C86.8906 7.66016 87.082 8.32031 87.082 9.04688H84.9141C84.9141 8.69531 84.8086 8.35547 84.5977 8.02734C84.3945 7.69141 84.0938 7.41406 83.6953 7.19531C83.3047 6.97656 82.8242 6.86719 82.2539 6.86719C81.6523 6.86719 81.1641 6.96094 80.7891 7.14844C80.4219 7.32812 80.1523 7.55859 79.9805 7.83984C79.8164 8.12109 79.7344 8.41797 79.7344 8.73047C79.7344 8.96484 79.7734 9.17578 79.8516 9.36328C79.9375 9.54297 80.0859 9.71094 80.2969 9.86719C80.5078 10.0156 80.8047 10.1562 81.1875 10.2891C81.5703 10.4219 82.0586 10.5547 82.6523 10.6875C83.6914 10.9219 84.5469 11.2031 85.2188 11.5312C85.8906 11.8594 86.3906 12.2617 86.7188 12.7383C87.0469 13.2148 87.2109 13.793 87.2109 14.4727C87.2109 15.0273 87.0938 15.5352 86.8594 15.9961C86.6328 16.457 86.3008 16.8555 85.8633 17.1914C85.4336 17.5195 84.918 17.7773 84.3164 17.9648C83.7227 18.1445 83.0547 18.2344 82.3125 18.2344C81.1953 18.2344 80.25 18.0352 79.4766 17.6367C78.7031 17.2383 78.1172 16.7227 77.7188 16.0898C77.3203 15.457 77.1211 14.7891 77.1211 14.0859H79.3008C79.332 14.6797 79.5039 15.1523 79.8164 15.5039C80.1289 15.8477 80.5117 16.0938 80.9648 16.2422C81.418 16.3828 81.8672 16.4531 82.3125 16.4531C82.9062 16.4531 83.4023 16.375 83.8008 16.2188C84.207 16.0625 84.5156 15.8477 84.7266 15.5742C84.9375 15.3008 85.043 14.9883 85.043 14.6367ZM89.4844 11.8008V11.5312C89.4844 10.6172 89.6172 9.76953 89.8828 8.98828C90.1484 8.19922 90.5312 7.51562 91.0312 6.9375C91.5312 6.35156 92.1367 5.89844 92.8477 5.57812C93.5586 5.25 94.3555 5.08594 95.2383 5.08594C96.1289 5.08594 96.9297 5.25 97.6406 5.57812C98.3594 5.89844 98.9688 6.35156 99.4688 6.9375C99.9766 7.51562 100.363 8.19922 100.629 8.98828C100.895 9.76953 101.027 10.6172 101.027 11.5312V11.8008C101.027 12.7148 100.895 13.5625 100.629 14.3438C100.363 15.125 99.9766 15.8086 99.4688 16.3945C98.9688 16.9727 98.3633 17.4258 97.6523 17.7539C96.9492 18.0742 96.1523 18.2344 95.2617 18.2344C94.3711 18.2344 93.5703 18.0742 92.8594 17.7539C92.1484 17.4258 91.5391 16.9727 91.0312 16.3945C90.5312 15.8086 90.1484 15.125 89.8828 14.3438C89.6172 13.5625 89.4844 12.7148 89.4844 11.8008ZM91.6523 11.5312V11.8008C91.6523 12.4336 91.7266 13.0312 91.875 13.5938C92.0234 14.1484 92.2461 14.6406 92.543 15.0703C92.8477 15.5 93.2266 15.8398 93.6797 16.0898C94.1328 16.332 94.6602 16.4531 95.2617 16.4531C95.8555 16.4531 96.375 16.332 96.8203 16.0898C97.2734 15.8398 97.6484 15.5 97.9453 15.0703C98.2422 14.6406 98.4648 14.1484 98.6133 13.5938C98.7695 13.0312 98.8477 12.4336 98.8477 11.8008V11.5312C98.8477 10.9062 98.7695 10.3164 98.6133 9.76172C98.4648 9.19922 98.2383 8.70312 97.9336 8.27344C97.6367 7.83594 97.2617 7.49219 96.8086 7.24219C96.3633 6.99219 95.8398 6.86719 95.2383 6.86719C94.6445 6.86719 94.1211 6.99219 93.668 7.24219C93.2227 7.49219 92.8477 7.83594 92.543 8.27344C92.2461 8.70312 92.0234 9.19922 91.875 9.76172C91.7266 10.3164 91.6523 10.9062 91.6523 11.5312ZM105.914 8.02734V18H103.746V5.32031H105.797L105.914 8.02734ZM105.398 11.1797L104.496 11.1445C104.504 10.2773 104.633 9.47656 104.883 8.74219C105.133 8 105.484 7.35547 105.938 6.80859C106.391 6.26172 106.93 5.83984 107.555 5.54297C108.188 5.23828 108.887 5.08594 109.652 5.08594C110.277 5.08594 110.84 5.17188 111.34 5.34375C111.84 5.50781 112.266 5.77344 112.617 6.14062C112.977 6.50781 113.25 6.98438 113.438 7.57031C113.625 8.14844 113.719 8.85547 113.719 9.69141V18H111.539V9.66797C111.539 9.00391 111.441 8.47266 111.246 8.07422C111.051 7.66797 110.766 7.375 110.391 7.19531C110.016 7.00781 109.555 6.91406 109.008 6.91406C108.469 6.91406 107.977 7.02734 107.531 7.25391C107.094 7.48047 106.715 7.79297 106.395 8.19141C106.082 8.58984 105.836 9.04688 105.656 9.5625C105.484 10.0703 105.398 10.6094 105.398 11.1797Z" fill="black"/>
</svg>
