<svg width="114" height="19" viewBox="0 0 114 19" fill="none" xmlns="http://www.w3.org/2000/svg">
<path d="M7.48828 15.4102L12.5156 0.9375H14.9648L8.64844 18H6.90234L7.48828 15.4102ZM2.78906 0.9375L7.76953 15.4102L8.39062 18H6.64453L0.339844 0.9375H2.78906ZM23.8711 15.832V9.30469C23.8711 8.80469 23.7695 8.37109 23.5664 8.00391C23.3711 7.62891 23.0742 7.33984 22.6758 7.13672C22.2773 6.93359 21.7852 6.83203 21.1992 6.83203C20.6523 6.83203 20.1719 6.92578 19.7578 7.11328C19.3516 7.30078 19.0312 7.54688 18.7969 7.85156C18.5703 8.15625 18.457 8.48438 18.457 8.83594H16.2891C16.2891 8.38281 16.4062 7.93359 16.6406 7.48828C16.875 7.04297 17.2109 6.64062 17.6484 6.28125C18.0938 5.91406 18.625 5.625 19.2422 5.41406C19.8672 5.19531 20.5625 5.08594 21.3281 5.08594C22.25 5.08594 23.0625 5.24219 23.7656 5.55469C24.4766 5.86719 25.0312 6.33984 25.4297 6.97266C25.8359 7.59766 26.0391 8.38281 26.0391 9.32812V15.2344C26.0391 15.6562 26.0742 16.1055 26.1445 16.582C26.2227 17.0586 26.3359 17.4688 26.4844 17.8125V18H24.2227C24.1133 17.75 24.0273 17.418 23.9648 17.0039C23.9023 16.582 23.8711 16.1914 23.8711 15.832ZM24.2461 10.3125L24.2695 11.8359H22.0781C21.4609 11.8359 20.9102 11.8867 20.4258 11.9883C19.9414 12.082 19.5352 12.2266 19.207 12.4219C18.8789 12.6172 18.6289 12.8633 18.457 13.1602C18.2852 13.4492 18.1992 13.7891 18.1992 14.1797C18.1992 14.5781 18.2891 14.9414 18.4688 15.2695C18.6484 15.5977 18.918 15.8594 19.2773 16.0547C19.6445 16.2422 20.0938 16.3359 20.625 16.3359C21.2891 16.3359 21.875 16.1953 22.3828 15.9141C22.8906 15.6328 23.293 15.2891 23.5898 14.8828C23.8945 14.4766 24.0586 14.082 24.082 13.6992L25.0078 14.7422C24.9531 15.0703 24.8047 15.4336 24.5625 15.832C24.3203 16.2305 23.9961 16.6133 23.5898 16.9805C23.1914 17.3398 22.7148 17.6406 22.1602 17.8828C21.6133 18.1172 20.9961 18.2344 20.3086 18.2344C19.4492 18.2344 18.6953 18.0664 18.0469 17.7305C17.4062 17.3945 16.9062 16.9453 16.5469 16.3828C16.1953 15.8125 16.0195 15.1758 16.0195 14.4727C16.0195 13.793 16.1523 13.1953 16.418 12.6797C16.6836 12.1562 17.0664 11.7227 17.5664 11.3789C18.0664 11.0273 18.668 10.7617 19.3711 10.582C20.0742 10.4023 20.8594 10.3125 21.7266 10.3125H24.2461ZM31.6172 8.02734V18H29.4492V5.32031H31.5L31.6172 8.02734ZM31.1016 11.1797L30.1992 11.1445C30.207 10.2773 30.3359 9.47656 30.5859 8.74219C30.8359 8 31.1875 7.35547 31.6406 6.80859C32.0938 6.26172 32.6328 5.83984 33.2578 5.54297C33.8906 5.23828 34.5898 5.08594 35.3555 5.08594C35.9805 5.08594 36.543 5.17188 37.043 5.34375C37.543 5.50781 37.9688 5.77344 38.3203 6.14062C38.6797 6.50781 38.9531 6.98438 39.1406 7.57031C39.3281 8.14844 39.4219 8.85547 39.4219 9.69141V18H37.2422V9.66797C37.2422 9.00391 37.1445 8.47266 36.9492 8.07422C36.7539 7.66797 36.4688 7.375 36.0938 7.19531C35.7188 7.00781 35.2578 6.91406 34.7109 6.91406C34.1719 6.91406 33.6797 7.02734 33.2344 7.25391C32.7969 7.48047 32.418 7.79297 32.0977 8.19141C31.7852 8.58984 31.5391 9.04688 31.3594 9.5625C31.1875 10.0703 31.1016 10.6094 31.1016 11.1797Z" fill="#F61515"/>
<path d="M50.707 15.5391V0H52.8867V18H50.8945L50.707 15.5391ZM42.1758 11.8008V11.5547C42.1758 10.5859 42.293 9.70703 42.5273 8.91797C42.7695 8.12109 43.1094 7.4375 43.5469 6.86719C43.9922 6.29688 44.5195 5.85938 45.1289 5.55469C45.7461 5.24219 46.4336 5.08594 47.1914 5.08594C47.9883 5.08594 48.6836 5.22656 49.2773 5.50781C49.8789 5.78125 50.3867 6.18359 50.8008 6.71484C51.2227 7.23828 51.5547 7.87109 51.7969 8.61328C52.0391 9.35547 52.207 10.1953 52.3008 11.1328V12.2109C52.2148 13.1406 52.0469 13.9766 51.7969 14.7188C51.5547 15.4609 51.2227 16.0938 50.8008 16.6172C50.3867 17.1406 49.8789 17.543 49.2773 17.8242C48.6758 18.0977 47.9727 18.2344 47.168 18.2344C46.4258 18.2344 45.7461 18.0742 45.1289 17.7539C44.5195 17.4336 43.9922 16.9844 43.5469 16.4062C43.1094 15.8281 42.7695 15.1484 42.5273 14.3672C42.293 13.5781 42.1758 12.7227 42.1758 11.8008ZM44.3555 11.5547V11.8008C44.3555 12.4336 44.418 13.0273 44.543 13.582C44.6758 14.1367 44.8789 14.625 45.1523 15.0469C45.4258 15.4688 45.7734 15.8008 46.1953 16.043C46.6172 16.2773 47.1211 16.3945 47.707 16.3945C48.4258 16.3945 49.0156 16.2422 49.4766 15.9375C49.9453 15.6328 50.3203 15.2305 50.6016 14.7305C50.8828 14.2305 51.1016 13.6875 51.2578 13.1016V10.2773C51.1641 9.84766 51.0273 9.43359 50.8477 9.03516C50.6758 8.62891 50.4492 8.26953 50.168 7.95703C49.8945 7.63672 49.5547 7.38281 49.1484 7.19531C48.75 7.00781 48.2773 6.91406 47.7305 6.91406C47.1367 6.91406 46.625 7.03906 46.1953 7.28906C45.7734 7.53125 45.4258 7.86719 45.1523 8.29688C44.8789 8.71875 44.6758 9.21094 44.543 9.77344C44.418 10.3281 44.3555 10.9219 44.3555 11.5547ZM61.5234 18.2344C60.6406 18.2344 59.8398 18.0859 59.1211 17.7891C58.4102 17.4844 57.7969 17.0586 57.2812 16.5117C56.7734 15.9648 56.3828 15.3164 56.1094 14.5664C55.8359 13.8164 55.6992 12.9961 55.6992 12.1055V11.6133C55.6992 10.582 55.8516 9.66406 56.1562 8.85938C56.4609 8.04688 56.875 7.35938 57.3984 6.79688C57.9219 6.23438 58.5156 5.80859 59.1797 5.51953C59.8438 5.23047 60.5312 5.08594 61.2422 5.08594C62.1484 5.08594 62.9297 5.24219 63.5859 5.55469C64.25 5.86719 64.793 6.30469 65.2148 6.86719C65.6367 7.42188 65.9492 8.07812 66.1523 8.83594C66.3555 9.58594 66.457 10.4062 66.457 11.2969V12.2695H56.9883V10.5H64.2891V10.3359C64.2578 9.77344 64.1406 9.22656 63.9375 8.69531C63.7422 8.16406 63.4297 7.72656 63 7.38281C62.5703 7.03906 61.9844 6.86719 61.2422 6.86719C60.75 6.86719 60.2969 6.97266 59.8828 7.18359C59.4688 7.38672 59.1133 7.69141 58.8164 8.09766C58.5195 8.50391 58.2891 9 58.125 9.58594C57.9609 10.1719 57.8789 10.8477 57.8789 11.6133V12.1055C57.8789 12.707 57.9609 13.2734 58.125 13.8047C58.2969 14.3281 58.543 14.7891 58.8633 15.1875C59.1914 15.5859 59.5859 15.8984 60.0469 16.125C60.5156 16.3516 61.0469 16.4648 61.6406 16.4648C62.4062 16.4648 63.0547 16.3086 63.5859 15.9961C64.1172 15.6836 64.582 15.2656 64.9805 14.7422L66.293 15.7852C66.0195 16.1992 65.6719 16.5938 65.25 16.9688C64.8281 17.3438 64.3086 17.6484 63.6914 17.8828C63.082 18.1172 62.3594 18.2344 61.5234 18.2344ZM71.1562 7.3125V18H68.9883V5.32031H71.0977L71.1562 7.3125ZM75.1172 5.25L75.1055 7.26562C74.9258 7.22656 74.7539 7.20312 74.5898 7.19531C74.4336 7.17969 74.2539 7.17188 74.0508 7.17188C73.5508 7.17188 73.1094 7.25 72.7266 7.40625C72.3438 7.5625 72.0195 7.78125 71.7539 8.0625C71.4883 8.34375 71.2773 8.67969 71.1211 9.07031C70.9727 9.45312 70.875 9.875 70.8281 10.3359L70.2188 10.6875C70.2188 9.92188 70.293 9.20312 70.4414 8.53125C70.5977 7.85938 70.8359 7.26562 71.1562 6.75C71.4766 6.22656 71.8828 5.82031 72.375 5.53125C72.875 5.23438 73.4688 5.08594 74.1562 5.08594C74.3125 5.08594 74.4922 5.10547 74.6953 5.14453C74.8984 5.17578 75.0391 5.21094 75.1172 5.25ZM84.5039 14.6367C84.5039 14.3242 84.4336 14.0352 84.293 13.7695C84.1602 13.4961 83.8828 13.25 83.4609 13.0312C83.0469 12.8047 82.4219 12.6094 81.5859 12.4453C80.8828 12.2969 80.2461 12.1211 79.6758 11.918C79.1133 11.7148 78.6328 11.4688 78.2344 11.1797C77.8438 10.8906 77.543 10.5508 77.332 10.1602C77.1211 9.76953 77.0156 9.3125 77.0156 8.78906C77.0156 8.28906 77.125 7.81641 77.3438 7.37109C77.5703 6.92578 77.8867 6.53125 78.293 6.1875C78.707 5.84375 79.2031 5.57422 79.7812 5.37891C80.3594 5.18359 81.0039 5.08594 81.7148 5.08594C82.7305 5.08594 83.5977 5.26562 84.3164 5.625C85.0352 5.98438 85.5859 6.46484 85.9688 7.06641C86.3516 7.66016 86.543 8.32031 86.543 9.04688H84.375C84.375 8.69531 84.2695 8.35547 84.0586 8.02734C83.8555 7.69141 83.5547 7.41406 83.1562 7.19531C82.7656 6.97656 82.2852 6.86719 81.7148 6.86719C81.1133 6.86719 80.625 6.96094 80.25 7.14844C79.8828 7.32812 79.6133 7.55859 79.4414 7.83984C79.2773 8.12109 79.1953 8.41797 79.1953 8.73047C79.1953 8.96484 79.2344 9.17578 79.3125 9.36328C79.3984 9.54297 79.5469 9.71094 79.7578 9.86719C79.9688 10.0156 80.2656 10.1562 80.6484 10.2891C81.0312 10.4219 81.5195 10.5547 82.1133 10.6875C83.1523 10.9219 84.0078 11.2031 84.6797 11.5312C85.3516 11.8594 85.8516 12.2617 86.1797 12.7383C86.5078 13.2148 86.6719 13.793 86.6719 14.4727C86.6719 15.0273 86.5547 15.5352 86.3203 15.9961C86.0938 16.457 85.7617 16.8555 85.3242 17.1914C84.8945 17.5195 84.3789 17.7773 83.7773 17.9648C83.1836 18.1445 82.5156 18.2344 81.7734 18.2344C80.6562 18.2344 79.7109 18.0352 78.9375 17.6367C78.1641 17.2383 77.5781 16.7227 77.1797 16.0898C76.7812 15.457 76.582 14.7891 76.582 14.0859H78.7617C78.793 14.6797 78.9648 15.1523 79.2773 15.5039C79.5898 15.8477 79.9727 16.0938 80.4258 16.2422C80.8789 16.3828 81.3281 16.4531 81.7734 16.4531C82.3672 16.4531 82.8633 16.375 83.2617 16.2188C83.668 16.0625 83.9766 15.8477 84.1875 15.5742C84.3984 15.3008 84.5039 14.9883 84.5039 14.6367ZM88.9453 11.8008V11.5312C88.9453 10.6172 89.0781 9.76953 89.3438 8.98828C89.6094 8.19922 89.9922 7.51562 90.4922 6.9375C90.9922 6.35156 91.5977 5.89844 92.3086 5.57812C93.0195 5.25 93.8164 5.08594 94.6992 5.08594C95.5898 5.08594 96.3906 5.25 97.1016 5.57812C97.8203 5.89844 98.4297 6.35156 98.9297 6.9375C99.4375 7.51562 99.8242 8.19922 100.09 8.98828C100.355 9.76953 100.488 10.6172 100.488 11.5312V11.8008C100.488 12.7148 100.355 13.5625 100.09 14.3438C99.8242 15.125 99.4375 15.8086 98.9297 16.3945C98.4297 16.9727 97.8242 17.4258 97.1133 17.7539C96.4102 18.0742 95.6133 18.2344 94.7227 18.2344C93.832 18.2344 93.0312 18.0742 92.3203 17.7539C91.6094 17.4258 91 16.9727 90.4922 16.3945C89.9922 15.8086 89.6094 15.125 89.3438 14.3438C89.0781 13.5625 88.9453 12.7148 88.9453 11.8008ZM91.1133 11.5312V11.8008C91.1133 12.4336 91.1875 13.0312 91.3359 13.5938C91.4844 14.1484 91.707 14.6406 92.0039 15.0703C92.3086 15.5 92.6875 15.8398 93.1406 16.0898C93.5938 16.332 94.1211 16.4531 94.7227 16.4531C95.3164 16.4531 95.8359 16.332 96.2812 16.0898C96.7344 15.8398 97.1094 15.5 97.4062 15.0703C97.7031 14.6406 97.9258 14.1484 98.0742 13.5938C98.2305 13.0312 98.3086 12.4336 98.3086 11.8008V11.5312C98.3086 10.9062 98.2305 10.3164 98.0742 9.76172C97.9258 9.19922 97.6992 8.70312 97.3945 8.27344C97.0977 7.83594 96.7227 7.49219 96.2695 7.24219C95.8242 6.99219 95.3008 6.86719 94.6992 6.86719C94.1055 6.86719 93.582 6.99219 93.1289 7.24219C92.6836 7.49219 92.3086 7.83594 92.0039 8.27344C91.707 8.70312 91.4844 9.19922 91.3359 9.76172C91.1875 10.3164 91.1133 10.9062 91.1133 11.5312ZM105.375 8.02734V18H103.207V5.32031H105.258L105.375 8.02734ZM104.859 11.1797L103.957 11.1445C103.965 10.2773 104.094 9.47656 104.344 8.74219C104.594 8 104.945 7.35547 105.398 6.80859C105.852 6.26172 106.391 5.83984 107.016 5.54297C107.648 5.23828 108.348 5.08594 109.113 5.08594C109.738 5.08594 110.301 5.17188 110.801 5.34375C111.301 5.50781 111.727 5.77344 112.078 6.14062C112.438 6.50781 112.711 6.98438 112.898 7.57031C113.086 8.14844 113.18 8.85547 113.18 9.69141V18H111V9.66797C111 9.00391 110.902 8.47266 110.707 8.07422C110.512 7.66797 110.227 7.375 109.852 7.19531C109.477 7.00781 109.016 6.91406 108.469 6.91406C107.93 6.91406 107.438 7.02734 106.992 7.25391C106.555 7.48047 106.176 7.79297 105.855 8.19141C105.543 8.58984 105.297 9.04688 105.117 9.5625C104.945 10.0703 104.859 10.6094 104.859 11.1797Z" fill="#111111"/>
</svg>
