<svg width="416" height="300" viewBox="0 0 416 300" fill="none" xmlns="http://www.w3.org/2000/svg">
<rect width="416" height="300" rx="4" fill="#CECECE" fill-opacity="0.8"/>
<path d="M129.39 240.295C129.331 240.295 129.275 240.317 129.232 240.356V240.356C129.145 240.436 129.012 240.438 128.922 240.36L128.916 240.355C128.872 240.316 128.816 240.295 128.758 240.295H109.101C106.206 240.292 103.43 239.236 101.384 237.358C99.3379 235.481 98.1885 232.935 98.1885 230.281V68.7865C98.2086 66.138 99.3645 63.6032 101.406 61.7294C103.448 59.8557 106.212 58.7936 109.101 58.7725H307.294C313.323 58.7725 318.207 63.2601 318.207 68.7865V230.281C318.187 232.93 317.031 235.464 314.989 237.338C312.947 239.212 310.183 240.274 307.294 240.295H129.39ZM289.502 173.643C292.068 175.995 296.205 174.175 296.205 170.694V82.9416C296.205 80.7325 294.415 78.9416 292.205 78.9416H124.19C121.981 78.9416 120.19 80.7325 120.19 82.9416V211.033C120.19 214.513 124.328 216.333 126.893 213.981L227.497 121.758C229.026 120.356 231.373 120.356 232.903 121.758L289.502 173.643ZM296.205 210.066C296.205 208.945 295.735 207.875 294.908 207.118L232.903 150.277C231.373 148.875 229.026 148.875 227.497 150.277L158.881 213.177C156.192 215.642 157.936 220.126 161.584 220.126H292.205C294.415 220.126 296.205 218.335 296.205 216.126V210.066ZM164.194 139.449C158.359 139.449 152.763 137.324 148.636 133.542C144.51 129.759 142.192 124.629 142.192 119.28C142.192 113.931 144.51 108.801 148.636 105.018C152.763 101.236 158.359 99.1108 164.194 99.1108C170.029 99.1108 175.626 101.236 179.752 105.018C183.878 108.801 186.196 113.931 186.196 119.28C186.196 124.629 183.878 129.759 179.752 133.542C175.626 137.324 170.029 139.449 164.194 139.449Z" fill="white"/>
</svg>
